Coordinates
version=1
nRows=18
nColumns=32
inDegrees=yes

Units are S.I. units (second, meters, Newtons, ...)
If the header above contains a line with 'inDegrees', this indicates whether rotational values are in degrees (yes) or radians (no).

endheader
time	pelvis_tilt	pelvis_list	pelvis_rotation	pelvis_tx	pelvis_ty	pelvis_tz	hip_flexion_r	hip_adduction_r	hip_rotation_r	knee_angle_r	knee_adduction_r	med_cond_adduction_r	lat_cond_adduction_r	patella_r_constrained_knee_angle	hip_flexion_l	hip_adduction_l	hip_rotation_l	knee_angle_l	knee_adduction_l	med_cond_adduction_l	lat_cond_adduction_l	patella_l_constrained_knee_angle	lumbar_extension	lumbar_bending	lumbar_rotation	ankle_angle_r	subtalar_angle_r	mtp_angle_r	ankle_angle_l	subtalar_angle_l	mtp_angle_l
      1.39000000	      3.58981842	      2.24519021	    -11.32047092	      0.27159249	      0.78699021	     -0.19295249	    -18.73352858	     -4.29548093	      3.11658761	    -28.40756360	      0.09793436	     -0.00000000	     -0.00000000	     -0.49580552	     23.90814956	      3.30809611	    -15.41875742	    -21.65723885	     -0.76813590	      0.00000000	      0.00000000	     -0.37799012	    -12.99671847	     -2.20851443	      4.31899246	     -6.80650758	      4.98572743	      0.00000000	     -8.76966806	     -9.15324675	      0.00000000
      1.39500000	      3.52958521	      2.37145420	    -10.88077593	      0.27907576	      0.78733323	     -0.19355061	    -18.19280156	     -4.23333280	      3.31722999	    -29.82151718	      0.14837512	     -0.00000000	     -0.00000000	     -0.52048366	     23.77556475	      3.76887960	    -14.78834160	    -22.34319197	     -0.78845544	      0.00000000	      0.00000000	     -0.38996227	    -12.85679272	     -2.35191027	      4.04408135	     -8.79719562	      4.34605919	      0.00000000	     -7.92732417	     -9.55479694	     -0.00000000
      1.40000000	      3.49624416	      2.62090820	    -10.53141397	      0.28650582	      0.78773139	     -0.19417622	    -17.50641570	     -4.38603356	      3.41343326	    -31.42818105	      0.21776905	      0.00000000	      0.00000000	     -0.54852524	     23.57873042	      4.38353915	    -14.33575251	    -22.88434974	     -0.92237322	      0.00000000	      0.00000000	     -0.39940725	    -12.72769813	     -2.63250261	      3.82480056	    -10.69073931	      3.92969591	      0.00000000	     -7.11929266	     -9.82691958	      0.00000000
      1.40500000	      3.46257511	      2.84351319	    -10.16887507	      0.29379826	      0.78821465	     -0.19473824	    -16.74210160	     -4.47454441	      3.50903789	    -33.12012650	      0.24756432	      0.00000000	      0.00000000	     -0.57805526	     23.35265168	      4.93875554	    -13.82685718	    -23.39685414	     -0.99507863	     -0.00000000	     -0.00000000	     -0.40835214	    -12.62649934	     -2.89706804	      3.57489503	    -12.59602875	      3.54651509	     -0.00000000	     -6.35823955	    -10.08343126	      0.00000000
      1.41000000	      3.42890221	      3.03230617	     -9.84772937	      0.30101372	      0.78877179	     -0.19518576	    -15.95472568	     -4.55689590	      3.85570528	    -34.78096188	      0.46030660	     -0.00000000	     -0.00000000	     -0.60704230	     23.10676431	      5.38898438	    -13.44559312	    -23.90449846	     -1.03546715	     -0.00000000	     -0.00000000	     -0.41721220	    -12.53752287	     -3.12675939	      3.39360130	    -14.52602672	      2.73629366	      0.00000000	     -5.52611614	    -10.14670748	     -0.00000000
      1.41500000	      3.40291544	      3.21983046	     -9.58712448	      0.30813257	      0.78949219	     -0.19559362	    -15.10197031	     -4.65557130	      4.38529297	    -36.46043365	      0.76192012	      0.00000000	      0.00000000	     -0.63635461	     22.79298886	      5.85131560	    -13.20864309	    -24.28483940	     -1.18703707	      0.00000000	      0.00000000	     -0.42385041	    -12.49300591	     -3.37079199	      3.25763554	    -16.62164329	      1.74741499	      0.00000000	     -4.71222088	     -9.87891697	     -0.00000000
      1.42000000	      3.41910056	      3.43350291	     -9.09019256	      0.31514941	      0.79014957	     -0.19612090	    -14.20756598	     -4.63141775	      4.03633545	    -38.33223112	      0.46894604	     -0.00000000	     -0.00000000	     -0.66902364	     22.36222160	      6.36641488	    -12.29723085	    -24.56139716	     -0.95565234	      0.00000000	      0.00000000	     -0.42867725	    -12.49832947	     -3.66185584	      2.84622676	    -17.94836072	      2.06426387	      0.00000000	     -4.23974971	    -10.54895607	      0.00000000
      1.42500000	      3.39322022	      3.55177654	     -8.68200323	      0.32205974	      0.79089785	     -0.19649062	    -13.27164639	     -4.55198473	      4.20600745	    -40.09679236	      0.53873964	      0.00000000	      0.00000000	     -0.69982105	     21.97539619	      6.70335607	    -11.70787984	    -24.88494262	     -0.83617133	      0.00000000	      0.00000000	     -0.43432418	    -12.49070243	     -3.83370405	      2.55549236	    -19.49888540	      1.49903212	      0.00000000	     -3.52707513	    -10.58900398	     -0.00000000
      1.43000000	      3.38230832	      3.78533773	     -8.41794357	      0.32888222	      0.79165835	     -0.19681516	    -12.20112067	     -4.69078765	      4.36357385	    -42.00567523	      0.62011140	      0.00000000	      0.00000000	     -0.73313734	     21.52356984	      7.13772887	    -11.35476654	    -25.02944737	     -0.78298741	      0.00000000	      0.00000000	     -0.43684627	    -12.47570787	     -4.13938279	      2.36062495	    -20.76626047	      1.08997950	     -0.00000000	     -2.90011493	    -10.56209556	      0.00000000
      1.43500000	      3.34117810	      3.96254649	     -8.08269796	      0.33560948	      0.79241964	     -0.19714068	    -11.09373932	     -4.72898930	      4.52565241	    -43.87978292	      0.72634453	     -0.00000000	     -0.00000000	     -0.76584669	     21.08589889	      7.49886709	    -10.91758070	    -25.18100944	     -0.68803671	      0.00000000	      0.00000000	     -0.43949152	    -12.46292353	     -4.38440845	      2.11641646	    -21.85460748	      0.60467012	     -0.00000000	     -2.24052091	    -10.47104784	      0.00000000
      1.44000000	      3.32349502	      4.06985965	     -7.72701156	      0.34224473	      0.79324971	     -0.19741864	     -9.99787666	     -4.67348577	      4.60994581	    -45.71494451	      0.77128367	     -0.00000000	     -0.00000000	     -0.79787630	     20.59036055	      7.75530753	    -10.48210678	    -25.30162358	     -0.54984630	     -0.00000000	     -0.00000000	     -0.44159664	    -12.49800562	     -4.54261135	      1.82824509	    -22.77552370	      0.07186660	     -0.00000000	     -1.58356668	    -10.33088975	     -0.00000000
      1.44500000	      3.28195441	      4.22582540	     -7.42935556	      0.34879587	      0.79405309	     -0.19768877	     -8.80151881	     -4.70047002	      4.66888261	    -47.59382191	      0.79174531	     -0.00000000	     -0.00000000	     -0.83066890	     20.07506267	      8.05245737	    -10.13104127	    -25.28919585	     -0.43080869	      0.00000000	      0.00000000	     -0.44137973	    -12.50263914	     -4.74777236	      1.61223684	    -23.35977246	     -0.38436024	     -0.00000000	     -0.99808536	    -10.18773684	      0.00000000
      1.45000000	      3.22433908	      4.38903811	     -7.14913935	      0.35527583	      0.79486789	     -0.19793451	     -7.53878968	     -4.74843117	      4.64554763	    -49.46529344	      0.75997963	     -0.00000000	      0.00000000	     -0.86333224	     19.52506742	      8.33018853	     -9.81068360	    -25.16841630	     -0.27686730	      0.00000000	      0.00000000	     -0.43927173	    -12.48865836	     -4.96529059	      1.35588836	    -23.71231054	     -0.80049445	     -0.00000000	     -0.52461288	    -10.15239189	     -0.00000000
      1.45500000	      3.13223031	      4.51085870	     -6.87377061	      0.36170181	      0.79565736	     -0.19816020	     -6.23236621	     -4.76726177	      4.70988449	    -51.25145571	      0.84374913	     -0.00000000	     -0.00000000	     -0.89450665	     19.04482260	      8.55562827	     -9.71818564	    -25.11328199	     -0.28171347	      0.00000000	      0.00000000	     -0.43830946	    -12.45812610	     -5.12871459	      1.08669529	    -24.07196563	     -1.59787296	      0.00000000	      0.15660672	     -9.56318855	     -0.00000000
      1.46000000	      3.07455134	      4.59878492	     -6.52695219	      0.36804359	      0.79644072	     -0.19853913	     -4.92547887	     -4.75808032	      4.46828028	    -53.05243538	      0.71015229	      0.00000000	      0.00000000	     -0.92593967	     18.45555550	      8.76943601	     -9.39847672	    -24.92218337	     -0.14708721	     -0.00000000	      0.00000000	     -0.43497416	    -12.47398281	     -5.21569265	      0.81428356	    -23.90720287	     -1.88934252	      0.00000000	      0.61749647	     -9.48399874	     -0.00000000
      1.46500000	      2.97803097	      4.65393802	     -6.17315544	      0.37428492	      0.79724230	     -0.19887754	     -3.57645867	     -4.70944681	      4.27086108	    -54.76303408	      0.62272457	     -0.00000000	     -0.00000000	     -0.95579525	     17.88969510	      8.91621948	     -9.11764340	    -24.68778733	     -0.01562722	      0.00000000	      0.00000000	     -0.43088317	    -12.46891576	     -5.25849330	      0.50265995	    -23.68347142	     -2.43645997	     -0.00000000	      1.06820111	     -9.26519278	      0.00000000
      1.47000000	      2.87268546	      4.75585293	     -5.90221869	      0.38052472	      0.79801359	     -0.19921735	     -2.17167275	     -4.77213738	      4.12552208	    -56.43294565	      0.58514513	      0.00000000	      0.00000000	     -0.98494071	     17.32318929	      9.12272009	     -9.07880208	    -24.39039852	     -0.01604709	     -0.00000000	     -0.00000000	     -0.42569276	    -12.43525483	     -5.35054154	      0.25498574	    -23.26391276	     -3.01745388	     -0.00000000	      1.52740613	     -8.85096134	      0.00000000
      1.47500000	      2.74689460	      4.78150444	     -5.59689285	      0.38667293	      0.79878433	     -0.19957619	     -0.75179396	     -4.73852730	      3.92161511	    -57.99627701	      0.49531693	     -0.00000000	     -0.00000000	     -1.01222599	     16.77099411	      9.23486867	     -9.02519139	    -24.09147855	     -0.00238482	      0.00000000	      0.00000000	     -0.42047562	    -12.39587961	     -5.34747020	     -0.04254167	    -22.74264531	     -3.59414303	     -0.00000000	      1.97246039	     -8.43696409	     -0.00000000
